<?xml version="1.0" encoding="utf-8"?>
<!-- Generator: Adobe Illustrator 23.0.0, SVG Export Plug-In . SVG Version: 6.00 Build 0)  -->
<svg version="1.1" id="Layer_1" xmlns="http://www.w3.org/2000/svg" xmlns:xlink="http://www.w3.org/1999/xlink" x="0px" y="0px"
	 viewBox="0 0 138 34.4" style="enable-background:new 0 0 138 34.4;" xml:space="preserve">
<style type="text/css">
	.st0{clip-path:url(#SVGID_2_);}
	.st1{clip-path:url(#SVGID_4_);}
	.st2{fill:#1F1F1F;}
</style>
<g id="g2993" transform="matrix(0,-1.25,-1.25,0,250.3613,1127.626)">
	<g id="g2995">
		<g>
			<defs>
				<polyline id="SVGID_1_" points="774,190.3 774,263 774,263 825.4,263 				"/>
			</defs>
			<clipPath id="SVGID_2_">
				<use xlink:href="#SVGID_1_"  style="overflow:visible;"/>
			</clipPath>
			<g id="g2997" class="st0">
				<g>
					<defs>
						<polyline id="SVGID_3_" points="774,190.3 774,263 825.4,263 						"/>
					</defs>
					<clipPath id="SVGID_4_">
						<use xlink:href="#SVGID_3_"  style="overflow:visible;"/>
					</clipPath>
					<g id="g3003" class="st1">
					</g>
				</g>
			</g>
		</g>
	</g>
</g>
<g>
	<path class="st2" d="M5.6,14c2.3,1.9,3.2,3.1,3.2,3.1c0.1-0.5,0.7-1.4,0.7-1.4c-1.1-1-4.9-3.5-6.1-4C2,11.2,0.2,11.1,0,12.9
		c0,0,0.2-0.5,0.6-0.7C1,12,1.6,12,2.2,12C2.8,12.1,3.9,12.6,5.6,14z"/>
	<path class="st2" d="M3.5,11.5l1.2,0.8c-1.7-3.7-3.4-1.7-3.4-1.7C3,10.2,3.2,11.3,3.5,11.5z"/>
	<path class="st2" d="M2.7,16.6c0.8,0.3,1.4,0.1,1.7-0.4c0.1-0.2,0.2-0.4,0.3-0.6c0.1-0.3,0.1-0.6,0.1-0.6c1.4,1.3,2.9,3.6,3.8,4.8
		c-0.3-1.2-0.1-1.7-0.2-1.8c-1.2-1.4-1.6-1.9-2.3-2.7c-2.3-2.5-4.1-2.9-4.1-2.9C6,15.3,2.7,16.6,2.7,16.6z"/>
	<path class="st2" d="M18,7.4c-0.1,1.7-2.6,3.7-2,6.8c0.3,1.7,2,3,2,3S17.4,16.1,17,14c-0.1-0.8,0.1-1.5,0.5-2.4l0.1,0.1l0.5,0.5
		c-0.2-0.5-0.1-1.8-0.1-2c0.2-0.5,0.4-1,0.5-1.5l0.1,0l0.6,0.4c-0.3-0.3-0.5-1.1-0.6-1.6c0-0.1,0-0.1,0-0.2
		c-0.3-1.1-0.8-1.7-0.8-1.7S18.1,6.6,18,7.4z"/>
	<path class="st2" d="M18.1,15.9c0,0,3.3-0.8,4.5-3.5c0.9-1.9-0.2-3.3,1.1-6.2c1.4-3,11.4-5.8,11.4-5.8s-4.4,0.7-6.5,1.4
		c-2.2,0.7-5.3,2.1-6.7,3.8c-1.4,1.8-0.2,4.6-0.6,6.5C20.9,14,18.1,15.9,18.1,15.9z"/>
	<path class="st2" d="M30.5,5.2l1.6-0.4c0,0,0-2.2,3.1-4.3C35.2,0.6,31.6,1.7,30.5,5.2z"/>
	<path class="st2" d="M29.7,5.9c-5.6,1.6-4.8,4.5-4.9,6.2c-0.1,1.6-1.4,5.2-6.3,4.7c0,0,2.9,1.6,6.1-1c3.2-2.6,1-5.8,3.6-7.3
		c2.6-1.5,4.6-2.8,12.7-3.1C40.9,5.4,35.2,4.3,29.7,5.9z"/>
	<path class="st2" d="M26.5,14.3c2-0.4,3.8,1,3.8,1c-1.3-1.5-3.5-1.8-3.5-1.8C26.7,13.9,26.5,14.3,26.5,14.3z"/>
	<path class="st2" d="M40.5,5.7c0,0-6.9-0.1-4.2,5.4c-8.3-0.5-5.5,4.5-5.4,4.6c0.1-4.5,5.4-4.6,5.4-4.6c0,0,0,0,0,0c0,0,0,0,0,0h0
		c0,0,0,0,0,0C36.3,11,35.1,6.8,40.5,5.7z"/>
	<path class="st2" d="M19.2,17.7c4.2,0.6,6.4,2,6.4,2c1.4-3.8,5.2-3.9,5.3-3.9c-4-0.8-5.1,1.3-5.3,2.7
		C22.1,17.7,19.2,17.7,19.2,17.7z"/>
	<path class="st2" d="M3.7,31c0,0,0.9-0.5,1.9-0.4c0.6,0.1,1.8-0.4,1.8-0.4c-0.5,0-1.7-0.6-2.7-0.5C3.6,29.9,3.7,31,3.7,31z"/>
	<path class="st2" d="M23.6,28.3c0,0,0.6-0.3,1.4-0.3c0.5,0,1.4-0.3,1.4-0.3c-0.4,0-1.3-0.4-2-0.3C23.5,27.5,23.6,28.3,23.6,28.3z"
		/>
	<path class="st2" d="M32.9,31c0.6,0.1,1.4,0,1.4,0c-0.5,0-1.2-0.9-2.2-0.7c-0.9,0.2-0.8,1.1-0.8,1.1S32,31,32.9,31z"/>
	<path class="st2" d="M27.8,9.4c0,0.1-0.1,0.2-0.2,0.5c-0.1,0.2-0.2,0.6-0.2,0.6s2-1.1,8.5,0.4C35.9,10.9,32.6,9.2,27.8,9.4z"/>
	<path class="st2" d="M6.1,7.8c1.4,0,2.4-1.3,3.3-1.3c0.9,0,1.6,0.3,1.6,0.3s-0.7-0.8-1.6-0.8C8.1,5.9,7.1,7.3,6,7.3
		c-1.1,0-1.7-0.4-1.7-0.4S5,7.8,6.1,7.8z"/>
	<path class="st2" d="M14.5,10.3c-0.1-1.5-0.7-2.1-0.7-2.1s0.2,0.7,0.1,2c-0.1,2.2-4.4,5.2-4.3,8.8c0,2.1,1.6,3.4,1.6,3.4
		s-0.7-1.9-0.4-3.8C11.3,15.8,14.6,12.8,14.5,10.3z"/>
	<path class="st2" d="M9.4,29.9c0.4-0.7,1.6-3.5,2.2-4.8c0.6-1.3,2-2.9,2-2.9c-2.1-2.2,0.8-4.8,0.8-4.8c-1.6,0.4-2.4,1.1-2.7,2
		c-0.5,1.3,0.2,2.9,0.2,2.9c-0.4,0.3-1.9,4.7-2.6,6.5c-0.7,1.8-2.1,2.2-3.6,2.2c-1.5-0.1-3,0.9-3,1.8c0,0.9,0.3,1.2,0.3,1.2
		C3,32.5,5,32.2,6.8,32.1C8.4,31.4,8.9,30.5,9.4,29.9z"/>
	<path class="st2" d="M17.9,22.2c0.9-1.7-1-3.4-1-3.4s0.8,1.9-0.1,2.8c-1.1,1.1-2.6,0.9-2.6,0.9s-2.3,7.1-6.3,9.6c0,0,2.5-0.4,3.2,0
		c0.8,0.3,1.5,0.8,0.8,2c0,0,1.5-0.8,1.1-2c-0.3-1-1.8-1-1.8-1s-0.4-0.2-0.2-0.8c0.2-0.6,1.8-2.6,2-3c0.2-0.4,2.2-3.4,2.3-3.6
		C15.3,23.6,17.1,23.8,17.9,22.2z"/>
	<path class="st2" d="M27,21.7c-3.5,1.4-5.7,2.1-7.5,2.3c0,0-0.1,0-0.3,0c-1.6,0-2-0.4-2-0.4C17,23.9,16.1,24,16.1,24
		s-0.5,0.8-0.7,1c0.3,0.1,1.6,0.4,1.9,0.4c4.1,0.4,7.3-2.2,10-3.1L27,21.7z"/>
	<path class="st2" d="M27.8,27.5c0.6-1.1,0.4-2.6,0.8-3.6c0.1-0.3,0.1-0.3,0.1-0.3c-0.3-0.2-0.9-0.7-0.9-0.7
		c-0.4,1.1-0.1,2.9-0.4,3.8c-0.5,1.2-1.2,1.7-2.4,1.7c-1.3-0.1-2.2,0.6-2.2,1.3c0,0.6,0.2,0.9,0.2,0.9c0.1-1,1.6-1.3,2.8-1.3
		C26.9,28.8,27.4,28,27.8,27.5z"/>
	<path class="st2" d="M30.5,29c-0.2-0.7-1.3-0.8-1.3-0.8s-0.3-0.1-0.1-0.6c0.2-0.5,0.6-1.7,0.7-2.1c0.1-0.1,0.1-0.6,0.4-1.2
		c-0.3-0.2-0.7-0.4-0.7-0.4c-0.3,0.7-0.9,4.2-2.6,5.1c0,0,1.7-0.3,2.2,0c0.6,0.2,1.2,0.6,0.6,1.5C29.7,30.6,30.8,30,30.5,29z"/>
	<path class="st2" d="M33.3,23.7c0,0-2.8,0-6.1-2.8c1,2.9,5.3,3.7,5.3,3.7c0.1,0.2,0,1.1,1.5,4.2c0.2,0.4,1.2,2.3,0.8,2.6
		c-0.2,0.1-1.9,0.1-1.9,0.1c-1.4,0-2.7,0.8-2.7,1.6c0,0.8,0.3,1.1,0.3,1.1c0.1-1.2,1-1.3,2.5-1.5c1.6-0.2,2.3-0.1,3.3-0.2
		c0.3-0.4-0.2-1.3-0.2-1.3C35.1,29.2,33.7,25.1,33.3,23.7z"/>
	<path class="st2" d="M39.2,15.3C41,11,44.1,7.7,44,4.9c0,0,0.1-1.9-1.2-3h0l0.5-0.1c-0.7-0.5-2.7-1.3-2.7-1.3l0,0
		c0.6,0.5,1.5,2.5,1.5,2.5l0.2-0.6c0,0,1.1,1,1.1,2.6c0,2.4-3.1,6.5-5,10.4c-0.4,0-0.8,0-1.2,0c-1.5,0-2.8,0.2-3.9,0.6
		c0,0-0.9,0.2-1.7,0.5c-0.3,0-0.8,0-0.8,0c6.4,2.1,3.5,6.9,3.5,6.9s0.3,1.8,0.7,3c0.4,1.2,1.4,3.9,1.4,3.9c-0.1-0.1,0.7,1.9,0.6,2.3
		c0,0,0.4,0,1,0l0,0c0.6,0.1,1.6,0.2,1.3,1.4c0,0,0.8-0.5,0.3-1.4c-0.3-0.7-1.5-0.9-1.5-0.9s-0.5-0.2-0.8-0.9L36.8,29
		c-0.5-1.7-1.2-3.9-1.1-5.5c0.5-1.6,0.6-2.8,0.4-3.7c-0.3-1.3-1.2-2.2-2.1-2.7c0.3-0.1,1.1-0.3,1.1-0.3c0.8-0.2,1.8-0.3,2.7-0.3l0,0
		c-0.3,0.8-0.9,2.3-0.9,4.7c0,2.4,0.9,3.7,2.1,4.3c1,0.6,1.8,0.7,2.5,0.7c2.1,0,4.5-1.4,4.5-5.2C46.1,18.3,43.3,15.8,39.2,15.3z
		 M44.4,23.4c-0.4,0.9-1.3,1.8-2.7,1.9c-2.6,0.2-3.7-2.1-3.8-3.8c-0.1-1.8,0.3-3.5,0.8-5c2.2,0.1,3.6,0.7,4.5,1.6
		c1.7,1.5,1.6,3.2,1.6,3.2S45,22.3,44.4,23.4z"/>
	<polygon class="st2" points="43.3,1.7 43.3,1.7 43.3,1.7 	"/>
	<path class="st2" d="M11.3,6.6c0,0-1.2,1.5-3.6,1.1c0,0,0.7,1.1,2.3,1.1c1.6,0,3.2-1.6,3.7-1.1c0,0-0.2-2.3,2.7-3.1
		c0,0,0.6,0.5,0.8,0.8c0,0,0.9-0.7,0.9-2.5C18,1.1,17,0.3,16.6,0c0,0,0.2,1.1-0.3,2.1c-0.3,0.6-0.9,1.3-1.8,1.3c0,0-0.8,0-1.3-0.1
		c-0.5-0.2-2.5-0.8-2.7,1c0,0-2.2-0.7-3.6,0.4l0.7,1.2C7.7,5.9,9.8,4.2,11.3,6.6z M11.9,3.9C12.5,4,12.4,4.2,13,4.1
		c0,0-0.7,1.2-1.7,0.5C11.3,4.5,11.3,3.9,11.9,3.9z"/>
	<polygon class="st2" points="63.3,13.8 60.8,13.8 60.8,7.2 59.8,7.2 59.8,14.7 63.3,14.7 	"/>
	<rect x="64.1" y="6.6" class="st2" width="0.9" height="8.1"/>
	<path class="st2" d="M69.4,9.2l-1.1,4.5h0L67,9.2h-0.9l1.7,5.6l-0.2,0.8c-0.1,0.6-0.3,0.7-0.6,0.7c-0.2,0-0.4,0-0.5-0.1l0,0.8
		c0.2,0,0.4,0.1,0.6,0.1c0.7,0,1.1-0.3,1.3-1.3l1.9-6.6H69.4z"/>
	<polygon class="st2" points="78.1,9.2 77.2,9.2 76.2,13.8 76.1,13.8 75.1,9.2 74,9.2 72.9,13.8 72.9,13.8 71.9,9.2 70.9,9.2 
		72.4,14.7 73.4,14.7 74.5,10 74.5,10 75.6,14.7 76.7,14.7 	"/>
	<path class="st2" d="M83,11.9c0-1.7-0.8-2.8-2.2-2.8c-1.5,0-2.2,1.1-2.2,2.8c0,1.7,0.8,2.8,2.2,2.8C82.3,14.7,83,13.6,83,11.9z
		 M79.5,11.9c0-1.4,0.4-2.1,1.3-2.1c0.9,0,1.3,0.7,1.3,2.1c0,1.4-0.4,2.1-1.3,2.1C79.9,14,79.5,13.3,79.5,11.9z"/>
	<path class="st2" d="M88,13.7V6.6h-0.9v3.3h0c-0.4-0.6-0.8-0.8-1.4-0.8c-1.1,0-1.9,0.9-1.9,2.8c0,1.9,0.8,2.8,1.9,2.8
		c0.8,0,1.2-0.5,1.4-0.9h0l0,0.8H88C88,14.3,88,14,88,13.7z M85.9,14c-0.8,0-1.2-0.7-1.2-2.1c0-1.4,0.4-2.1,1.2-2.1
		c0.8,0,1.2,0.7,1.2,2.1C87.1,13.3,86.7,14,85.9,14z"/>
	<path class="st2" d="M89.2,14.7h0.9v-2.9c0-1.2,0.5-1.8,1.2-1.8c0.1,0,0.2,0,0.3,0V9.1c-0.8,0-1.3,0.3-1.6,0.9h0l0-0.9h-0.9
		c0,0.4,0,0.8,0,1.2V14.7z"/>
	<path class="st2" d="M95.3,13.9L95.3,13.9l0.1,0.7h0.8c0-0.2,0-0.5,0-0.8V11c0-0.8-0.2-1.1-0.5-1.3c-0.2-0.2-0.7-0.5-1.5-0.5
		c-0.5,0-1.1,0.2-1.6,0.5l0.1,0.9c0.3-0.3,0.9-0.6,1.4-0.6c0.4,0,0.7,0.1,0.9,0.3c0.2,0.2,0.2,0.5,0.2,0.9v0.2h-0.5
		c-1.9,0-2.6,0.8-2.6,1.9c0,1.1,0.7,1.6,1.6,1.6C94.6,14.7,95,14.3,95.3,13.9z M94,14.1c-0.6,0-0.9-0.4-0.9-1c0-0.6,0.5-1.1,1.6-1.1
		c0.3,0,0.5,0,0.6,0v0.7C95.3,13.4,94.8,14.1,94,14.1z"/>
	<path class="st2" d="M100.8,13.6c-0.3,0.2-0.8,0.5-1.3,0.5c-1,0-1.5-0.6-1.5-1.9h3.1v-0.5c0-1.6-0.7-2.6-1.9-2.6
		c-1.4,0-2.1,1.1-2.1,2.8c0,1.7,0.8,2.8,2.2,2.8c0.5,0,1.1-0.1,1.5-0.3L100.8,13.6z M99.2,9.8c0.7,0,1.1,0.6,1.1,1.7h-2.2
		C98.1,10.2,98.6,9.8,99.2,9.8z"/>
	<path class="st2" d="M104.6,13.9c-0.2,0.1-0.3,0.1-0.6,0.1c-0.4,0-0.6-0.2-0.6-0.9V9.9h1.1V9.2h-1.1V7.8l-0.9,0.3v1.1h-0.9v0.7h0.9
		v3.5c0,1,0.4,1.3,1.3,1.3c0.2,0,0.5-0.1,0.8-0.1V13.9z"/>
	<path class="st2" d="M107.7,9.1c-0.6,0-1.1,0.4-1.3,0.8h0V6.6h-0.9v8.1h0.9v-3.3c0-1,0.5-1.5,1.2-1.5c0.6,0,0.9,0.4,0.9,1.2v3.5
		h0.9v-3.8C109.3,9.6,108.6,9.1,107.7,9.1z"/>
	<path class="st2" d="M117.8,13.6c-0.4,0.2-0.9,0.4-1.3,0.4c-1.6,0-2.4-1.3-2.4-3.2c0-1.8,1.1-2.8,2.3-2.8c0.5,0,1,0.1,1.4,0.4V7.3
		c-0.3-0.2-0.9-0.3-1.4-0.3c-2,0-3.3,1.5-3.3,3.8c0,2,1,3.8,3.4,3.8c0.4,0,0.9-0.1,1.4-0.2V13.6z"/>
	<path class="st2" d="M119.8,15.6c-0.2,0.6-0.3,0.7-0.6,0.7c-0.2,0-0.4,0-0.5-0.1l0,0.8c0.2,0,0.4,0.1,0.6,0.1
		c0.7,0,1.1-0.3,1.3-1.3l1.9-6.6h-0.9l-1.1,4.5h0l-1.2-4.5h-0.9l1.7,5.6L119.8,15.6z"/>
	<path class="st2" d="M128.2,9.1c-0.6,0-1,0.3-1.3,0.9c-0.3-0.6-0.7-0.9-1.3-0.9c-0.6,0-1.1,0.3-1.4,0.9h0l0-0.8h-0.9
		c0,0.4,0,0.8,0,1.2v4.3h0.9v-3.4c0-1,0.4-1.4,1-1.4c0.5,0,0.8,0.3,0.8,1v3.8h0.9v-3.4c0-1,0.4-1.4,1-1.4c0.5,0,0.8,0.3,0.8,1v3.8
		h0.9v-3.8C129.8,9.6,129.1,9.1,128.2,9.1z"/>
	<path class="st2" d="M130.9,14.7h0.9v-2.9c0-1.2,0.5-1.8,1.2-1.8c0.1,0,0.2,0,0.3,0V9.1c-0.8,0-1.3,0.3-1.6,0.9h0l0-0.9h-0.9
		c0,0.4,0,0.8,0,1.2V14.7z"/>
	<path class="st2" d="M137.1,13.8L137.1,13.8l0.1,0.8h0.9c0-0.4,0-0.8,0-1.2V9.2h-0.9v3.3c0,1-0.5,1.5-1.2,1.5
		c-0.6,0-0.9-0.4-0.9-1.3V9.2h-0.9V13c0,1.2,0.6,1.8,1.6,1.8C136.3,14.7,136.8,14.5,137.1,13.8z"/>
	<polygon class="st2" points="66.1,25.4 66.1,25.4 64.7,19.4 63.5,19.4 62.2,25.4 62.2,25.4 60.9,19.4 59.9,19.4 61.6,26.9 
		62.7,26.9 64.1,20.4 64.1,20.4 65.6,26.9 66.7,26.9 68.3,19.4 67.4,19.4 	"/>
	<path class="st2" d="M70.7,21.3c-1.4,0-2.1,1.1-2.1,2.8c0,1.7,0.8,2.8,2.2,2.8c0.5,0,1.1-0.1,1.5-0.3l0-0.8
		c-0.3,0.2-0.8,0.5-1.3,0.5c-1,0-1.5-0.6-1.5-1.9h3.1v-0.5C72.6,22.3,71.9,21.3,70.7,21.3z M69.5,23.7c0-1.3,0.5-1.7,1.1-1.7
		c0.7,0,1.1,0.6,1.1,1.7H69.5z"/>
	<polygon class="st2" points="73.9,26.9 74.8,26.9 74.8,26.9 74.8,18.8 73.9,18.8 	"/>
	<path class="st2" d="M78.3,23.8L78,23.7c-0.6-0.2-0.9-0.5-0.9-0.9c0-0.4,0.3-0.8,0.9-0.8c0.4,0,0.8,0.1,1.1,0.2l0-0.8
		c-0.3-0.1-0.7-0.2-1.2-0.2c-1.1,0-1.8,0.7-1.8,1.6c0,0.7,0.3,1.1,1.1,1.4l0.6,0.3c0.5,0.2,0.7,0.5,0.7,0.9c0,0.4-0.4,0.8-1,0.8
		c-0.5,0-0.9-0.2-1.3-0.4l-0.1,0.8c0.4,0.2,0.9,0.3,1.5,0.3c1.3,0,1.8-0.8,1.8-1.7C79.4,24.6,79,24.1,78.3,23.8z"/>
	<path class="st2" d="M82.7,21.3c-0.6,0-1.1,0.4-1.3,0.8h0v-3.3h-0.9v8.1h0.9v-3.3c0-1,0.5-1.5,1.2-1.5c0.6,0,0.9,0.4,0.9,1.3v3.5
		h0.9v-3.8C84.3,21.9,83.6,21.3,82.7,21.3z"/>
	<path class="st2" d="M91.1,23.6h1.3v2.4c-0.2,0.1-0.6,0.2-0.9,0.2c-1.6,0-2.4-1.3-2.4-3.2c0-1.8,1.1-2.8,2.3-2.8
		c0.5,0,1.2,0.2,1.8,0.5v-0.9c-0.5-0.2-1.1-0.3-1.8-0.3c-2,0-3.3,1.5-3.3,3.8c0,2,1,3.8,3.4,3.8c0.7,0,1.4-0.2,1.9-0.4v-3.8h-2.2
		V23.6z"/>
	<path class="st2" d="M96.7,21.3c-1.5,0-2.2,1.1-2.2,2.8c0,1.7,0.8,2.8,2.2,2.8c1.5,0,2.2-1.1,2.2-2.8
		C98.9,22.4,98.2,21.3,96.7,21.3z M96.7,26.2c-0.9,0-1.3-0.7-1.3-2.1c0-1.4,0.4-2.1,1.3-2.1c0.9,0,1.3,0.7,1.3,2.1
		C98,25.5,97.6,26.2,96.7,26.2z"/>
	<polygon class="st2" points="101.6,26 101.6,26 100.4,21.4 99.4,21.4 101.1,26.9 102.1,26.9 103.8,21.4 102.8,21.4 	"/>
	<path class="st2" d="M106.4,21.3c-1.4,0-2.1,1.1-2.1,2.8c0,1.7,0.8,2.8,2.2,2.8c0.5,0,1.1-0.1,1.5-0.3l0-0.8
		c-0.3,0.2-0.8,0.5-1.3,0.5c-1,0-1.5-0.6-1.5-1.9h3.1v-0.5C108.3,22.3,107.6,21.3,106.4,21.3z M105.2,23.7c0-1.3,0.5-1.7,1.1-1.7
		c0.7,0,1.1,0.6,1.1,1.7H105.2z"/>
	<path class="st2" d="M110.2,22.2L110.2,22.2l-0.1-0.9h-0.9c0,0.4,0,0.8,0,1.2v4.3h0.9V24c0-1.2,0.5-1.8,1.2-1.8c0.1,0,0.2,0,0.3,0
		v-0.9C111,21.3,110.5,21.6,110.2,22.2z"/>
	<path class="st2" d="M114.8,21.3c-0.6,0-1.1,0.3-1.4,0.9h0l0-0.8h-0.9c0,0.4,0,0.8,0,1.2v4.3h0.9v-3.3c0-1,0.5-1.5,1.2-1.5
		c0.6,0,0.9,0.4,0.9,1.3v3.5h0.9v-3.8C116.4,21.9,115.7,21.3,114.8,21.3z"/>
	<path class="st2" d="M122.6,21.3c-0.6,0-1,0.3-1.3,0.9c-0.3-0.6-0.7-0.9-1.3-0.9c-0.6,0-1.1,0.3-1.4,0.9h0l0-0.8h-0.9
		c0,0.4,0,0.8,0,1.2v4.3h0.9v-3.4c0-1,0.4-1.4,1-1.4c0.5,0,0.8,0.3,0.8,1v3.8h0.9v-3.4c0-1,0.4-1.4,1-1.4c0.5,0,0.8,0.3,0.8,1v3.8
		h0.9v-3.8C124.2,21.9,123.5,21.3,122.6,21.3z"/>
	<path class="st2" d="M127.3,21.3c-1.4,0-2.1,1.1-2.1,2.8c0,1.7,0.8,2.8,2.2,2.8c0.5,0,1.1-0.1,1.5-0.3l0-0.8
		c-0.3,0.2-0.8,0.5-1.3,0.5c-1,0-1.5-0.6-1.5-1.9h3.1v-0.5C129.3,22.3,128.6,21.3,127.3,21.3z M126.2,23.7c0-1.3,0.5-1.7,1.1-1.7
		c0.7,0,1.1,0.6,1.1,1.7H126.2z"/>
	<path class="st2" d="M132.5,21.3c-0.6,0-1.1,0.3-1.4,0.9h0l0-0.8h-0.9c0,0.4,0,0.8,0,1.2v4.3h0.9v-3.3c0-1,0.5-1.5,1.2-1.5
		c0.6,0,0.9,0.4,0.9,1.3v3.5h0.9v-3.8C134.1,21.9,133.5,21.3,132.5,21.3z"/>
	<path class="st2" d="M136.8,20l-0.9,0.3v1.1H135v0.7h0.9v3.5c0,1,0.4,1.3,1.3,1.3c0.2,0,0.5-0.1,0.8-0.1v-0.7
		c-0.2,0.1-0.3,0.1-0.6,0.1c-0.4,0-0.6-0.2-0.6-0.9v-3.2h1.1v-0.7h-1.1V20z"/>
	<rect x="52.1" class="st2" width="0.8" height="34.4"/>
</g>
</svg>
