<?xml version="1.0" encoding="UTF-8"?>
<svg width="585" height="46" xmlns="http://www.w3.org/2000/svg">
  <g fill="currentColor" fill-rule="nonzero">
    <path d="M40.49 36H29.71l-4.52-23.33L20.48 36H10.31L3.58 8.8c-.24-.89-.66-1.6-1.74-1.6H0V2h14.55v5.2h-3l4.57 20.11h.19L21.28 2h9.51c1.65 8.43 3.25 16.86 4.94 25.29h.19l4.8-20.09h-3.67V2h13.89v5.2h-2c-1.09 0-1.51.71-1.75 1.6L40.49 36zM48.94 23c0-9.08 5.23-13.51 13-13.51 9.09 0 11.49 5.84 11.49 12.29v2.82H57.32c0 4.33 1.89 6.12 5.94 6.12 1.83 0 4.61-.56 5.93-3.25h3.72v6.74a28.802 28.802 0 01-10.6 2.26c-8.47.02-13.37-4.17-13.37-13.47zM66 20.1c0-2.68-.8-5.32-4.33-5.32-3.11 0-4.47 2.45-4.47 5.32H66zM76.45 4.85h-1.83V0h10.92v30.09c0 .79.42 1 1.08 1h2v4.85h-14v-4.87h1.83c.71 0 1.18-.14 1.18-.94V6c0-.91-.38-1.15-1.18-1.15zM110 10.55V17h-4c-.94-1.84-2.88-2.54-4.9-2.54-2.31 0-3.15 1.17-3.15 2.35 0 2.07 2.54 2.26 5.17 3 3.72 1 7.73 2.07 7.73 7.81 0 6.45-5.09 9-11.73 9a40.24 40.24 0 01-9-1.13v-6.82h4.38a4.42 4.42 0 004.5 3.2c2 0 3.72-.75 3.72-3 0-1.88-2.16-2.45-4.61-3C94.38 25 90 23.4 90 17.65s4.84-8.14 11.39-8.14c2.897.071 5.78.42 8.61 1.04zM140.27 31.07h1.84v4.85H128.5v-4.85h2.69V18.88c0-2.35-1-3.2-3.21-3.2a10.49 10.49 0 00-5 1.74v13.65h2.64v4.85h-13.55v-4.85h1.79c.75 0 1.18-.14 1.22-1V6c0-.94-.37-1.18-1.22-1.18H112V0h11v12.29a15.92 15.92 0 018.48-2.78c4.09 0 7.63 2 7.63 7.82v12.61c-.01.94.36 1.13 1.16 1.13zM152.78 30.74h1.65c1 0 1.32-.47 1.32-1.17V8.38c0-.71-.28-1.18-1.18-1.18h-1.79V2h16.81C178.3 2 182 6.26 182 11.91c0 4.52-2.59 7.53-6.64 8.38 4.71 1.46 5.41 4.1 5.41 6.55v1.22c0 1.74.33 2.49 3 2.68v5.18a27.27 27.27 0 01-3.82.24c-4.7 0-7.57-1.56-7.57-7.63v-1.88c0-1.89-1-3.86-4.1-3.86h-4.24v8h2.5v5.18h-13.8l.04-5.23zm11.3-13.09h4.62c4.09 0 4.75-3 4.75-5.17 0-1.89-.7-4.48-4.75-4.48h-4.62v9.65zM184.84 23c0-9.08 5.22-13.51 12.95-13.51 9.08 0 11.48 5.84 11.48 12.29v2.82h-16.05c.05 4.33 1.88 6.12 5.93 6.12a6.29 6.29 0 005.93-3.25h3.72v6.74a28.752 28.752 0 01-10.59 2.26c-8.48.02-13.37-4.17-13.37-13.47zm17.09-2.92c0-2.68-.8-5.32-4.33-5.32-3.11 0-4.48 2.45-4.48 5.32h8.81zM212.27 15.49a.86.86 0 00-.89-.52h-1.51v-4.85h13.47V15h-3L225 28.72h.38L229.83 15h-2.68v-4.88h11.72V15h-1.6a.75.75 0 00-.75.47L228.94 36h-8.81l-7.86-20.51zM239.21 23c0-9.08 5.22-13.51 12.95-13.51 9.08 0 11.48 5.84 11.48 12.29v2.82h-16c0 4.33 1.88 6.12 5.93 6.12a6.29 6.29 0 005.93-3.25h3.72v6.74a28.752 28.752 0 01-10.59 2.26c-8.53.02-13.42-4.17-13.42-13.47zm17.09-2.9c0-2.68-.8-5.32-4.33-5.32-3.11 0-4.48 2.45-4.48 5.32h8.81zM292.52 29.94c0 .94.38 1.13 1.18 1.13h1.83v4.85h-13.6v-4.85h2.68V18.79c0-2.26-1.17-3.25-3.2-3.25a11 11 0 00-5 1.83v13.7h2.69v4.85h-13.65v-4.85h1.84c.8 0 1.17-.19 1.17-1.13V16.15c0-.94-.37-1.18-1.17-1.18h-1.84v-4.85H276v2.31a15.67 15.67 0 018.94-2.92c4.05 0 7.58 2.07 7.58 7.77v12.66zM305.77 36.49c-4.15 0-7.77-1.89-7.77-7.82V16c0-.85-.43-1-1.09-1h-1.64v-4.88h10.64v17.05c0 2.21.8 3.2 2.68 3.2a11.17 11.17 0 005.51-1.75V15.54c-.1-.54-.62-.54-1.1-.54h-1.84v-4.88H322v19.12c0 1.31.56 1.83 1.74 1.83H325v4.85a24.17 24.17 0 01-4.52.43c-2.4 0-4.76-.38-5.84-2.88a17.19 17.19 0 01-8.87 3.02zM325.68 23c0-9.08 5.22-13.51 12.95-13.51 9.08 0 11.48 5.84 11.48 12.29v2.82h-16.05c.05 4.33 1.88 6.12 5.93 6.12 1.84 0 4.62-.56 5.93-3.25h3.72v6.74a28.752 28.752 0 01-10.59 2.26c-8.47.02-13.37-4.17-13.37-13.47zm17.09-2.92c0-2.68-.8-5.32-4.33-5.32-3.11 0-4.47 2.45-4.47 5.32h8.8zM370.91 7.2h-4.8l1.37-5.2h15.91l8.8 27.12c.28.9.66 1.6 1.74 1.6h1.7v5.18h-14.78v-5.16h2.82L381.79 24h-9.51l-2.07 6.73h2.92v5.18H360v-5.17h2.07c1.08 0 1.46-.7 1.74-1.6l7.1-21.94zm6.4 1h-.47l-3.34 11.24h7.11l-3.3-11.24zM405.22 36.49c-4.14 0-7.77-1.89-7.77-7.82V16c0-.85-.42-1-1.08-1h-1.65v-4.88h10.64v17.05c0 2.21.8 3.2 2.69 3.2a11.23 11.23 0 005.51-1.75V15.54c-.14-.52-.62-.57-1.13-.57h-1.84v-4.85h10.88v19.12c0 1.31.56 1.83 1.74 1.83h1.27v4.85a24.17 24.17 0 01-4.52.43c-2.4 0-4.76-.38-5.84-2.88a17.2 17.2 0 01-8.9 3.02zM435.23 27.07c0 2.54 1.46 3.3 3.72 3.3a10 10 0 003.11-.52v5.79a29.28 29.28 0 01-6.78.85c-3.16 0-8-.9-8-7.3v-14h-2.78v-4.41c3.43-.47 4.66-2.35 5.13-6.64h5.6v6h7.58v5.09h-7.58v11.84zM471.61 31.07h1.84v4.85h-13.61v-4.85h2.69V18.88c0-2.35-1-3.2-3.2-3.2a10.52 10.52 0 00-5 1.74v13.65H457v4.85h-13.59v-4.85h1.79c.76 0 1.18-.14 1.23-1V6c0-.94-.38-1.18-1.23-1.18h-1.83V0h11v12.29a16 16 0 018.48-2.78c4.1 0 7.63 2 7.63 7.82v12.61c-.04.94.33 1.13 1.13 1.13zM487.24 9.51c7.72 0 13.32 4.24 13.32 13.51S495 36.49 487.24 36.49c-7.76 0-13.33-4.1-13.33-13.49s5.56-13.49 13.33-13.49zm0 21.33c3.95 0 5.27-2.87 5.27-7.82s-1.32-7.81-5.27-7.81c-3.95 0-5.24 2.87-5.24 7.79s1.33 7.84 5.24 7.84zM504.78 16.15c0-.94-.38-1.18-1.23-1.18h-1.83v-4.85h10.5v4.33c4-3.76 7-4.66 8.52-4.66v7.91c-2.78.47-5.93 1.09-8 1.6v11.77h3v4.85h-13.97v-4.85h1.83c.8 0 1.18-.19 1.18-1.13V16.15zM534.15 31.12h1.55V36c-1.413.246-2.845.37-4.28.37-4.94 0-6.64-1.83-6.64-5.84V16.15c0-.94-.38-1.18-1.22-1.18h-1.79v-4.85h10.92v19.12c0 1.17.31 1.88 1.46 1.88zM524.64 0h8.14v6.07h-8.14V0zM546.27 27.07c0 2.54 1.46 3.3 3.72 3.3a9.93 9.93 0 003.1-.52v5.79a29.21 29.21 0 01-6.78.85c-3.15 0-7.95-.9-7.95-7.3v-14h-2.83v-4.41c3.44-.47 4.66-2.35 5.13-6.64h5.61v6h7.58v5.09h-7.58v11.84zM573.76 36.06L571 45.57h-9.09v-2.3c1.88-2.4 3.77-4.71 5.6-7.11V36h-3.25L557 15.44a.8.8 0 00-.84-.47h-1.7v-4.85h13.65V15h-3c1.51 4.66 3 9.28 4.47 13.94h.42L574.65 15h-2.87v-4.88h11.62V15h-1.59c-.52 0-.71.28-.85.76l-7.2 20.3z"/>
  </g>
</svg>