<?xml version="1.0" encoding="UTF-8"?>
<svg width="585" height="46" xmlns="http://www.w3.org/2000/svg">
  <g fill="currentColor" fill-rule="nonzero">
    <path d="M10.88 7.2H6.07L7.44 2h15.91l8.81 27.12c.28.9.66 1.61 1.74 1.61h1.69v5.17H20.81v-5.15h2.83L21.75 24h-9.51l-2.07 6.74h2.92v5.17H0v-5.16h2.07c1.08 0 1.46-.71 1.74-1.61L10.88 7.2zm6.4 1h-.47l-3.34 11.25h7.11L17.28 8.2zM75.53 26.84c0 7.15-5.74 9.65-11.82 9.65-3.76 0-7-1.08-9.08-3.53a13.43 13.43 0 01-9.09 3.53c-4.85 0-8.24-2.73-8.24-10V16c0-.85-.38-1-1-1h-2v-4.88h10.91V27c0 2.49 1.13 3.57 2.87 3.57a9.73 9.73 0 005-1.88c0-.42-.14-1.22-.14-2.31V15h-3v-4.88h10.48v17.05c0 2.4 1.22 3.43 3.72 3.43a3.53 3.53 0 003.48-3.48V15H65v-4.88h13.5V15h-2c-.52 0-.94.1-1 .76l.03 11.08zM96.42 6c0-.94-.38-1.18-1.22-1.18h-1.84V0h11v29.38c0 1.22.61 1.69 1.74 1.69h1.27v4.85a42.8 42.8 0 01-4.66.43c-2.35 0-4.38-.38-5.41-2.4a16.22 16.22 0 01-8.48 2.54c-4.66 0-9.74-2.73-9.74-13.09S84.46 9.51 91.52 9.51a24.88 24.88 0 014.9.66V6zm0 22.78v-13a12.49 12.49 0 00-3.42-.52c-4.66 0-5.84 2.44-5.84 8 0 5.22 1.6 7.39 4.38 7.39a9.42 9.42 0 004.88-1.84v-.03zM117.88 36.49c-4.14 0-7.77-1.88-7.77-7.82V16c0-.85-.42-1-1.08-1h-1.65v-4.88H118v17.05c0 2.21.8 3.2 2.69 3.2a11.29 11.29 0 005.51-1.74V15.54c-.14-.52-.62-.57-1.13-.57h-1.84v-4.85h10.88v19.12c0 1.32.56 1.83 1.74 1.83h1.27v4.85a24.17 24.17 0 01-4.52.43c-2.4 0-4.76-.38-5.84-2.88a17.2 17.2 0 01-8.88 3.02zM141.58 16.15c0-.94-.38-1.18-1.23-1.18h-1.83v-4.85H149v4.33c4.05-3.76 7-4.66 8.53-4.66v7.91c-2.78.47-5.94 1.09-8 1.6v11.77h3v4.85h-13.97v-4.85h1.84c.8 0 1.18-.18 1.18-1.13V16.15zM176.05 6c0-.94-.38-1.18-1.23-1.18H173V0h11v29.38c0 1.22.61 1.69 1.74 1.69H187v4.85a42.8 42.8 0 01-4.66.43c-2.36 0-4.38-.38-5.42-2.4a16.18 16.18 0 01-8.47 2.54c-4.66 0-9.75-2.73-9.75-13.09s5.42-13.89 12.48-13.89a25.08 25.08 0 014.9.66L176.05 6zm0 22.78v-13a12.49 12.49 0 00-3.44-.56c-4.66 0-5.84 2.44-5.84 8 0 5.22 1.6 7.39 4.38 7.39a9.45 9.45 0 004.9-1.8v-.03zM200.93 9.51c7.72 0 13.32 4.24 13.32 13.51s-5.6 13.47-13.32 13.47c-7.72 0-13.33-4.1-13.33-13.49s5.56-13.49 13.33-13.49zm0 21.33c3.95 0 5.27-2.87 5.27-7.82s-1.32-7.81-5.27-7.81c-3.95 0-5.23 2.87-5.23 7.79s1.3 7.84 5.23 7.84zM233.39 6c0-.94-.38-1.18-1.23-1.18h-1.83V0h11v29.38c0 1.22.61 1.69 1.74 1.69h1.27v4.85a42.8 42.8 0 01-4.66.43c-2.36 0-4.38-.38-5.41-2.4a16.24 16.24 0 01-8.48 2.54c-4.66 0-9.74-2.73-9.74-13.09s5.41-13.89 12.47-13.89a25.08 25.08 0 014.9.66L233.39 6zm0 22.78v-13a12.49 12.49 0 00-3.44-.56c-4.66 0-5.84 2.44-5.84 8 0 5.22 1.6 7.39 4.38 7.39a9.42 9.42 0 004.9-1.8v-.03zM271.8 1.46c3.69.045 7.36.563 10.92 1.54v8.53h-4.8c-.71-2.26-2.31-4.15-6.41-4.15-4.56 0-7.91 3.67-7.91 11.63 0 7.96 3.39 11.54 8.24 11.54 4.15 0 5.37-1.84 6.08-4.1h4.8v8.48a39.64 39.64 0 01-10.92 1.55c-10.6 0-16.72-5.56-16.72-17.47S261.2 1.46 271.8 1.46zM303.31 36.07l-2.78 9.51h-9.08v-2.31c1.88-2.4 3.76-4.71 5.6-7.11V36h-3.25l-7.2-20.53a.82.82 0 00-.85-.47h-1.7v-4.88h13.66V15h-3c1.51 4.66 3 9.28 4.48 13.94h.42l4.6-13.94h-2.88v-4.88H313V15h-1.6c-.52 0-.7.29-.85.76l-7.24 20.31z"/>
    <path d="M314.17 4.85h-1.84V0h10.92v30.09c0 .8.42 1 1.08 1h2v4.85h-14v-4.87h1.84c.7 0 1.17-.14 1.17-.94V6c0-.91-.34-1.15-1.17-1.15zM329.27 4.85h-1.84V0h10.93v30.09c0 .8.42 1 1.08 1h2v4.85h-14v-4.87h1.84c.7 0 1.17-.14 1.17-.94V6c-.01-.91-.38-1.15-1.18-1.15zM353.65 31.12h1.56V36a25 25 0 01-4.29.37c-4.94 0-6.64-1.83-6.64-5.83V16.15c0-.94-.37-1.18-1.22-1.18h-1.79v-4.85h10.92v19.12c0 1.18.33 1.88 1.46 1.88zM344.14 0h8.15v6.07h-8.15V0zM373.44 6c0-.94-.38-1.18-1.23-1.18h-1.84V0h11v29.38c0 1.22.62 1.69 1.75 1.69h1.27v4.85a42.8 42.8 0 01-4.66.43c-2.36 0-4.38-.38-5.42-2.4a16.18 16.18 0 01-8.47 2.54c-4.66 0-9.75-2.73-9.75-13.09s5.42-13.89 12.48-13.89a25.08 25.08 0 014.9.66L373.44 6zm0 22.78v-13a12.55 12.55 0 00-3.44-.56c-4.66 0-5.84 2.44-5.84 8 0 5.22 1.6 7.39 4.38 7.39a9.45 9.45 0 004.9-1.8v-.03zM411.84 1.46A43.3 43.3 0 01422.77 3v8.53H418c-.7-2.26-2.3-4.15-6.4-4.15-4.57 0-7.91 3.67-7.91 11.63 0 7.96 3.39 11.54 8.24 11.54 4.14 0 5.37-1.84 6.07-4.1h4.81v8.48a39.66 39.66 0 01-10.93 1.55c-10.59 0-16.71-5.56-16.71-17.47s6.08-17.55 16.67-17.55zM443.36 36.07l-2.78 9.51h-9.09v-2.31c1.89-2.4 3.77-4.71 5.61-7.11V36h-3.25l-7.21-20.53a.8.8 0 00-.84-.47h-1.7v-4.88h13.66V15h-3c1.51 4.66 3 9.28 4.47 13.94h.43L444.25 15h-2.87v-4.88H453V15h-1.6c-.52 0-.71.29-.85.76l-7.19 20.31zM496.08 30.09c0 .84.42 1 1.18 1h1.84v4.85h-12.58v-4.87h1.65V18.83c0-2.21-.89-3.15-2.73-3.15a8.91 8.91 0 00-4.85 1.6v13.79h2.64v4.85H471v-4.85h1.65V18.79c0-2.22-1-3.11-3-3.11a8.79 8.79 0 00-4.62 1.69v13.7h2.69v4.85h-13.59v-4.85H456c.75 0 1.18-.14 1.18-1V16c0-.85-.43-1-1.18-1h-1.84v-4.88h10.55v2.26a14.61 14.61 0 018.66-2.87 7 7 0 016.36 3.25 14.1 14.1 0 018.61-3.25c4.1 0 7.77 2 7.77 7.82l-.03 12.76zM503.41 16.15c0-.94-.37-1.18-1.22-1.18h-1.84v-4.85h10.5v4.33c4-3.76 7-4.66 8.52-4.66v7.91c-2.77.47-5.93 1.09-8.05 1.6v11.77h3v4.85H500.4v-4.85h1.83c.81 0 1.18-.18 1.18-1.13V16.15zM530.9 36.49c-4.14 0-7.77-1.88-7.77-7.82V16c0-.85-.42-1-1.08-1h-1.65v-4.88H531v17.05c0 2.21.8 3.2 2.68 3.2a11.32 11.32 0 005.52-1.74V15.54c-.15-.52-.62-.57-1.14-.57h-1.83v-4.85h10.87v19.12c0 1.32.57 1.83 1.75 1.83h1.27v4.85a24.17 24.17 0 01-4.52.43c-2.4 0-4.76-.38-5.84-2.88a17.23 17.23 0 01-8.86 3.02z"/>
  </g>
</svg>